<svg width="43" height="42" viewBox="0 0 43 42" fill="none" xmlns="http://www.w3.org/2000/svg">
<rect y="0.37207" width="43" height="41" rx="14" fill="#00ADB9"/>
<path d="M26.5065 26.4971L26.0608 26.0721C25.9034 25.9221 25.7154 25.8471 25.4965 25.8471C25.2784 25.8471 25.0906 25.9221 24.9333 26.0721C24.776 26.2221 24.6974 26.3971 24.6974 26.5971C24.6974 26.7971 24.776 26.9721 24.9333 27.1221L25.9559 28.0971C26.1132 28.2471 26.2967 28.3221 26.5065 28.3221C26.7163 28.3221 26.8998 28.2471 27.0571 28.0971L29.6004 25.7221C29.7577 25.5721 29.8364 25.3927 29.8364 25.1841C29.8364 24.9761 29.7577 24.7971 29.6004 24.6471C29.4431 24.4971 29.2554 24.4221 29.0372 24.4221C28.8184 24.4221 28.6303 24.4971 28.473 24.6471L26.5065 26.4971ZM26.2181 17.3721C26.5152 17.3721 26.7641 17.2761 26.9648 17.0841C27.1662 16.8927 27.2669 16.6554 27.2669 16.3721C27.2669 16.0887 27.1662 15.8511 26.9648 15.6591C26.7641 15.4677 26.5152 15.3721 26.2181 15.3721H15.7303C15.4331 15.3721 15.1839 15.4677 14.9825 15.6591C14.7818 15.8511 14.6815 16.0887 14.6815 16.3721C14.6815 16.6554 14.7818 16.8927 14.9825 17.0841C15.1839 17.2761 15.4331 17.3721 15.7303 17.3721H26.2181ZM27.2669 31.3721C25.816 31.3721 24.5795 30.8847 23.5573 29.9101C22.5344 28.9347 22.023 27.7554 22.023 26.3721C22.023 24.9887 22.5344 23.8094 23.5573 22.8341C24.5795 21.8594 25.816 21.3721 27.2669 21.3721C28.7177 21.3721 29.9545 21.8594 30.9774 22.8341C31.9997 23.8094 32.5108 24.9887 32.5108 26.3721C32.5108 27.7554 31.9997 28.9347 30.9774 29.9101C29.9545 30.8847 28.7177 31.3721 27.2669 31.3721ZM13.6327 11.3721H28.3156C28.8925 11.3721 29.3864 11.5677 29.7976 11.9591C30.208 12.3511 30.4132 12.8221 30.4132 13.3721V20.0471C29.9238 19.8137 29.4127 19.6427 28.8799 19.5341C28.3464 19.4261 27.8087 19.3721 27.2669 19.3721H15.7303C15.4331 19.3721 15.1839 19.4677 14.9825 19.6591C14.7818 19.8511 14.6815 20.0887 14.6815 20.3721C14.6815 20.6554 14.7818 20.8927 14.9825 21.0841C15.1839 21.2761 15.4331 21.3721 15.7303 21.3721H22.1278C21.8307 21.6554 21.5552 21.9637 21.3014 22.2971C21.0483 22.6304 20.8256 22.9887 20.6333 23.3721H15.7303C15.4331 23.3721 15.1839 23.4677 14.9825 23.6591C14.7818 23.8511 14.6815 24.0887 14.6815 24.3721C14.6815 24.6554 14.7818 24.8927 14.9825 25.0841C15.1839 25.2761 15.4331 25.3721 15.7303 25.3721H20.0041C19.9691 25.5387 19.9471 25.7014 19.938 25.8601C19.9296 26.0181 19.9254 26.1887 19.9254 26.3721C19.9254 27.0721 20.0261 27.7431 20.2274 28.3851C20.4281 29.0264 20.7295 29.6387 21.1315 30.2221C21.0441 30.2387 20.9522 30.2261 20.8557 30.1841C20.7599 30.1427 20.677 30.0887 20.6071 30.0221L19.7681 29.2221C19.6632 29.1221 19.5408 29.0721 19.401 29.0721C19.2612 29.0721 19.1388 29.1221 19.0339 29.2221L18.1949 30.0221C18.09 30.1221 17.9677 30.1721 17.8278 30.1721C17.688 30.1721 17.5656 30.1221 17.4608 30.0221L16.6217 29.2221C16.5169 29.1221 16.3945 29.0721 16.2547 29.0721C16.1148 29.0721 15.9925 29.1221 15.8876 29.2221L15.0486 30.0221C14.9437 30.1221 14.8213 30.1721 14.6815 30.1721C14.5417 30.1721 14.4193 30.1221 14.3144 30.0221L13.4754 29.2221C13.3705 29.1221 13.2482 29.0721 13.1083 29.0721C12.9685 29.0721 12.8461 29.1221 12.7413 29.2221L11.9022 30.0221L11.5352 30.2471V13.3721C11.5352 12.8221 11.7404 12.3511 12.1508 11.9591C12.5619 11.5677 13.0559 11.3721 13.6327 11.3721Z" fill="#F7F8FA"/>
</svg>
