<svg width="43" height="42" viewBox="0 0 43 42" fill="none" xmlns="http://www.w3.org/2000/svg">
<rect y="0.541992" width="43" height="41" rx="14" fill="#00ADB9"/>
<path d="M11.8582 29.542C11.5752 29.542 11.338 29.4498 11.1465 29.2654C10.9551 29.0811 10.8594 28.8526 10.8594 28.5801C10.8594 28.3075 10.9551 28.0791 11.1465 27.8947C11.338 27.7103 11.5752 27.6182 11.8582 27.6182H15.8536V25.6943H12.8571C12.574 25.6943 12.3368 25.6021 12.1454 25.4178C11.9539 25.2334 11.8582 25.0049 11.8582 24.7324C11.8582 24.4599 11.9539 24.2314 12.1454 24.047C12.3368 23.8627 12.574 23.7705 12.8571 23.7705H15.8536V21.8466H13.9058C13.6228 21.8466 13.3856 21.7545 13.1942 21.5701C13.0027 21.3857 12.907 21.1573 12.907 20.8847C12.907 20.6122 13.0027 20.3837 13.1942 20.1994C13.3856 20.015 13.6228 19.9228 13.9058 19.9228H15.8536V17.0851L14.3303 13.9108C14.2138 13.6703 14.2013 13.4258 14.2929 13.1773C14.3844 12.9288 14.5551 12.7485 14.8048 12.6363C15.0545 12.524 15.3084 12.512 15.5664 12.6002C15.8244 12.6884 16.0117 12.8527 16.1282 13.0932L18.051 17.037H29.6375L28.1143 13.9108C27.9978 13.6703 27.9853 13.4258 28.0769 13.1773C28.1684 12.9288 28.3391 12.7485 28.5888 12.6363C28.8385 12.524 29.0923 12.512 29.3504 12.6002C29.6084 12.6884 29.7957 12.8527 29.9122 13.0932L31.6352 16.6523C31.7018 16.7805 31.7517 16.9128 31.785 17.0491C31.8183 17.1853 31.835 17.3256 31.835 17.4699V27.6182C31.835 28.1472 31.6394 28.6001 31.2482 28.9769C30.857 29.3536 30.3867 29.542 29.8373 29.542H11.8582ZM21.8466 22.8086H25.842C26.125 22.8086 26.3622 22.7164 26.5536 22.532C26.7451 22.3476 26.8408 22.1192 26.8408 21.8466C26.8408 21.5741 26.7451 21.3456 26.5536 21.1613C26.3622 20.9769 26.125 20.8847 25.842 20.8847H21.8466C21.5636 20.8847 21.3264 20.9769 21.1349 21.1613C20.9435 21.3456 20.8478 21.5741 20.8478 21.8466C20.8478 22.1192 20.9435 22.3476 21.1349 22.532C21.3264 22.7164 21.5636 22.8086 21.8466 22.8086Z" fill="white"/>
</svg>
