<svg width="43" height="42" viewBox="0 0 43 42" fill="none" xmlns="http://www.w3.org/2000/svg">
<rect y="0.628906" width="43" height="41" rx="14" fill="#00ADB9"/>
<path d="M32.5108 14.8089L20.5442 26.2289L16.0974 21.9889L17.5761 20.5789L20.5442 23.4089L31.032 13.4089L32.5108 14.8089ZM30.193 19.8489C30.3293 20.4189 30.4132 21.0189 30.4132 21.6289C30.4132 26.0489 26.6586 29.6289 22.023 29.6289C17.3874 29.6289 13.6327 26.0489 13.6327 21.6289C13.6327 17.2089 17.3874 13.6289 22.023 13.6289C23.68 13.6289 25.2113 14.0889 26.5117 14.8789L28.022 13.4389C26.323 12.2989 24.2569 11.6289 22.023 11.6289C16.2337 11.6289 11.5352 16.1089 11.5352 21.6289C11.5352 27.1489 16.2337 31.6289 22.023 31.6289C27.8122 31.6289 32.5108 27.1489 32.5108 21.6289C32.5108 20.4389 32.28 19.2989 31.8815 18.2389L30.193 19.8489Z" fill="white"/>
</svg>
