<svg width="43" height="42" viewBox="0 0 43 42" fill="none" xmlns="http://www.w3.org/2000/svg">
<rect y="0.457031" width="43" height="41" rx="14" fill="#00ADB9"/>
<path d="M12.623 21.148C12.4358 20.2134 12.935 19.8239 13.208 19.746C13.1691 18.7724 13.138 16.6149 13.3252 15.7737C13.5592 14.7222 14.6122 14.839 14.8462 14.839C15.0802 14.839 18.2391 15.1895 19.5261 15.3064C20.8131 15.4232 23.5041 14.839 24.5571 14.9559C25.6101 15.0727 25.6101 17.643 26.7801 17.2925C27.7161 17.0121 27.0141 16.0074 26.5461 15.54C26.3121 15.3453 25.8909 14.8857 26.0781 14.6053C26.3121 14.2548 27.4821 14.6053 27.4821 14.839C27.4821 15.0259 27.7161 15.0726 27.8331 15.0726C28.0281 14.9948 28.5585 14.839 29.1201 14.839C29.8221 14.839 31.4601 16.942 31.4601 17.8767C31.4601 18.6244 30.8361 18.9671 30.5241 19.045H28.6521C28.1841 19.045 27.9111 19.5902 27.8331 19.8628C27.6381 20.7586 27.0843 22.55 26.4291 22.55C25.7739 22.55 25.6101 23.3289 25.6101 23.7183V27.457H24.9081C24.3465 27.457 24.2061 26.8339 24.2061 26.5224V24.5362C24.2061 23.8352 23.9721 24.3025 23.7381 23.7183C23.5041 23.1342 23.2701 23.251 21.9831 23.251C20.9535 23.251 20.0721 22.9395 19.7601 22.7837C19.4481 22.55 18.7539 22.2696 18.4731 23.0173C18.1923 23.7651 17.4201 23.952 17.0691 23.952C16.9131 23.952 16.4841 23.8819 16.0161 23.6015C15.5482 23.3211 15.3532 24.5751 15.3142 25.2372V27.457H14.6122C14.1442 27.457 13.9492 27.0676 13.9102 26.8729V23.4847C13.9102 22.55 14.1442 22.7837 14.4952 21.9658C14.8462 21.148 14.4952 18.9282 14.2612 18.1104C14.074 17.4561 13.9492 17.8377 13.9102 18.1104V20.6807C13.9102 21.4985 12.857 22.3164 12.623 21.148Z" fill="#F7F8FA"/>
<path d="M18.1221 24.8867C18.1221 24.8867 17.0691 25.0425 16.7181 25.0036C16.7571 25.3151 16.8351 26.0551 16.8351 26.5224C16.8351 26.9897 17.1471 27.3402 17.3031 27.457H18.5901C18.6291 27.4181 18.6369 27.2701 18.3561 26.9897C18.0753 26.7093 18.0831 25.4709 18.1221 24.8867Z" fill="#F7F8FA"/>
<path d="M23.0361 24.4194H21.7491V26.8729C21.7491 27.0598 22.0611 27.3402 22.2171 27.457H23.2701C23.5509 27.457 23.2311 26.9897 23.0361 26.7561V24.4194Z" fill="#F7F8FA"/>
<path d="M23.292 33.9174C16.654 34.8842 10.4509 30.537 9.43698 24.2078M23.292 33.9174L21.1966 31.9882M23.292 33.9174L21.7198 36.5709" stroke="#F7F8FA"/>
<path d="M20.5743 8.77256C27.0605 7.11544 33.7274 10.7856 35.4654 16.9701M20.5743 8.77256L22.8795 10.4703M20.5743 8.77256L21.8307 5.97031" stroke="#F7F8FA"/>
</svg>
