<svg width="56" height="56" viewBox="0 0 56 56" fill="none" xmlns="http://www.w3.org/2000/svg">
<g filter="url(#filter0_d_4031_8265)">
<rect x="4" width="48" height="48" rx="24" fill="#171717" shape-rendering="crispEdges"/>
<rect x="4.5" y="0.5" width="47" height="47" rx="23.5" stroke="#525252" shape-rendering="crispEdges"/>
<path d="M37.1748 19.6445C37.5967 21.1211 37.5967 24.2852 37.5967 24.2852C37.5967 24.2852 37.5967 27.4141 37.1748 28.9258C36.9639 29.7695 36.2959 30.4023 35.4873 30.6133C33.9756 31 27.9991 31 27.9991 31C27.9991 31 21.9873 31 20.4756 30.6133C19.667 30.4023 18.9991 29.7695 18.7881 28.9258C18.3663 27.4141 18.3663 24.2852 18.3663 24.2852C18.3663 24.2852 18.3663 21.1211 18.7881 19.6445C18.9991 18.8008 19.667 18.1328 20.4756 17.9219C21.9873 17.5 27.9991 17.5 27.9991 17.5C27.9991 17.5 33.9756 17.5 35.4873 17.9219C36.2959 18.1328 36.9639 18.8008 37.1748 19.6445ZM26.0303 27.1328L31.0225 24.2852L26.0303 21.4375V27.1328Z" fill="white"/>
</g>
<defs>
<filter id="filter0_d_4031_8265" x="0" y="0" width="56" height="56" filterUnits="userSpaceOnUse" color-interpolation-filters="sRGB">
<feFlood flood-opacity="0" result="BackgroundImageFix"/>
<feColorMatrix in="SourceAlpha" type="matrix" values="0 0 0 0 0 0 0 0 0 0 0 0 0 0 0 0 0 0 127 0" result="hardAlpha"/>
<feOffset dy="4"/>
<feGaussianBlur stdDeviation="2"/>
<feComposite in2="hardAlpha" operator="out"/>
<feColorMatrix type="matrix" values="0 0 0 0 0 0 0 0 0 0 0 0 0 0 0 0 0 0 0.25 0"/>
<feBlend mode="normal" in2="BackgroundImageFix" result="effect1_dropShadow_4031_8265"/>
<feBlend mode="normal" in="SourceGraphic" in2="effect1_dropShadow_4031_8265" result="shape"/>
</filter>
</defs>
</svg>
